<svg xmlns="http://www.w3.org/2000/svg" width="24" height="24" viewBox="0 0 24 24" fill="none" stroke="currentColor" stroke-width="2" stroke-linecap="round" stroke-linejoin="round" class="lucide lucide-mosque"><path d="M7 9v6h3v-1a2 2 0 0 1 4 0v1h3V9c0-7-7-4-7-4s-7-3-7 4Z"/><path d="M19 16.5c0-.763-.207-1.5-1-1.5h-3.256c-1.447 0-2.2.95-2.744 2-1 1.5-3 1.756-3 1.756V20a2 2 0 0 0 2 2h8a2 2 0 0 0 2-2v-3.5Z"/><circle cx="16.5" cy="18.5" r=".5"/><circle cx="12.5" cy="18.5" r=".5"/><path d="M20 10a2 2 0 0 1 2-2v14a2 2 0 0 1-2-2v-6"/><path d="M4 8a2 2 0 0 0-2 2v10a2 2 0 0 0 2 2v-6"/></svg>